# xmcd
#
# Track frame offsets: 
#        150
#        18512
#        32960
#        51437
#        66075
#        82922
#        102332
#        120482
#        137150
#        152905
#        169000
#
# Disc length: 2522 seconds
#
# Revision: 19
# Processed by: cddbd v1.5.2PL0 Copyright (c) Steve Scherf et al.
# Submitted via: ExactAudioCopy v1.3
#
DISCID=9009d80b
DTITLE=Luis Miguel - 33
DYEAR=2003
DGENRE=Latin
TTITLE0=Un Te Amo
TTITLE1=Con Tus Besos
TTITLE2=Devuelveme El Amor
TTITLE3=Te Necesito
TTITLE4=Nos Hizo Falta Tiempo
TTITLE5=Eres
TTITLE6=Ahora Que Te Vas
TTITLE7=Que Tristeza
TTITLE8=Y Sigo
TTITLE9=Vuelve
TTITLE10=Que Hacer
EXTD=
EXTT0=
EXTT1=
EXTT2=
EXTT3=
EXTT4=
EXTT5=
EXTT6=
EXTT7=
EXTT8=
EXTT9=
EXTT10=
PLAYORDER=
